<?xml version="1.0" standalone="no"?>
<!DOCTYPE svg PUBLIC "-//W3C//DTD SVG 20010904//EN"
 "http://www.w3.org/TR/2001/REC-SVG-20010904/DTD/svg10.dtd">
<svg version="1.0" xmlns="http://www.w3.org/2000/svg"
 width="1019.000000pt" height="1376.000000pt" viewBox="0 0 1019.000000 1376.000000"
 preserveAspectRatio="xMidYMid meet">

<g transform="translate(0.000000,1376.000000) scale(0.100000,-0.100000)"
fill="#000000" stroke="none">
<path d="M4945 11709 c-130 -16 -315 -56 -431 -94 -407 -133 -751 -413 -927
-754 -98 -188 -137 -325 -197 -681 -49 -292 -92 -468 -145 -594 l-16 -39 -22
31 c-27 38 -89 79 -142 93 -100 28 -265 -11 -367 -86 -104 -76 -217 -251 -253
-390 -63 -244 7 -520 191 -751 35 -44 61 -89 75 -133 37 -113 103 -232 246
-443 183 -273 242 -404 243 -539 0 -100 -2 -103 -117 -165 -230 -122 -465
-275 -656 -427 -266 -210 -587 -588 -632 -746 -5 -16 -4 -21 4 -17 7 5 11 -5
11 -29 0 -46 21 -86 64 -122 l35 -28 -15 -70 c-76 -357 -142 -1042 -174 -1810
-11 -261 -15 -1191 -6 -1349 3 -50 11 -185 17 -301 12 -240 17 -268 60 -321
54 -69 70 -68 118 5 37 58 38 71 16 466 -8 143 -20 477 -26 742 -18 670 -4
1084 66 2121 14 200 25 398 25 440 1 52 5 83 15 96 8 11 15 30 15 43 0 13 3
23 8 23 14 0 297 -217 407 -312 212 -183 448 -442 599 -659 l46 -67 -25 -123
c-62 -303 -122 -909 -165 -1650 -17 -307 -33 -996 -27 -1218 l5 -213 28 -29
c36 -37 91 -40 124 -6 20 21 27 22 89 15 149 -16 522 -20 956 -9 253 6 1065
30 1805 51 740 22 1419 40 1510 40 184 1 231 9 275 49 17 15 42 33 58 39 15 6
36 26 48 44 23 38 24 27 -20 342 -126 890 -191 1800 -191 2680 0 357 1 369 18
353 44 -40 63 -28 253 166 l178 182 1 -70 c3 -312 29 -952 84 -2060 83 -1651
77 -1546 88 -1575 23 -62 84 -92 139 -70 45 19 59 56 59 157 0 183 -48 1008
-91 1573 -77 1017 -132 1534 -208 1975 -12 66 -16 114 -10 120 6 5 9 3 9 -7 0
-44 72 -65 103 -30 25 28 56 108 92 240 27 95 32 128 24 148 -5 15 -44 83 -86
153 -246 406 -395 579 -660 766 l-86 60 -33 123 c-19 68 -56 181 -83 250 -27
70 -52 140 -55 155 -10 44 -8 253 4 337 18 132 135 670 145 670 6 0 94 -46
195 -101 393 -215 637 -323 815 -361 36 -7 133 -12 245 -12 155 1 199 4 274
23 281 68 541 281 673 552 78 157 104 270 104 438 0 169 -41 312 -130 454 -82
130 -206 208 -338 215 -90 5 -130 -8 -192 -64 -61 -55 -85 -117 -85 -221 1
-109 46 -206 73 -155 4 9 12 39 16 67 10 73 41 148 75 180 27 26 33 27 81 22
190 -23 309 -200 310 -462 1 -160 -28 -284 -102 -426 -80 -154 -202 -273 -354
-345 -135 -63 -205 -78 -370 -78 -330 0 -524 67 -1044 363 -107 61 -199 112
-204 114 -7 2 -3 60 11 163 38 277 45 395 39 679 -5 281 -15 375 -63 595 -136
622 -509 1137 -999 1380 -77 38 -176 81 -220 95 -105 34 -294 71 -425 84 -58
6 -154 18 -215 27 -132 19 -544 27 -660 13z m1761 -1510 c-56 -181 -72 -219
-92 -219 -8 0 -44 7 -80 16 l-64 17 83 86 c75 78 166 200 184 246 3 11 8 14
10 9 2 -6 -17 -76 -41 -155z m-165 64 c-10 -21 -53 -98 -95 -172 -42 -73 -76
-136 -76 -138 0 -3 7 -3 15 1 10 4 15 -1 15 -15 0 -29 44 -69 77 -69 53 0 198
-41 277 -78 l79 -37 -7 -220 c-6 -200 -12 -322 -32 -577 -6 -81 -8 -88 -28
-88 -40 0 -170 -41 -228 -72 -31 -16 -84 -52 -118 -79 l-61 -50 -38 30 c-51
40 -175 106 -245 131 -192 66 -437 54 -703 -35 -133 -44 -252 -96 -481 -207
-103 -49 -237 -114 -299 -143 l-112 -54 -20 87 c-47 200 -46 323 1 421 27 56
158 188 303 306 60 50 207 185 325 300 177 173 227 217 285 247 105 54 159 69
278 77 125 9 162 26 162 79 0 25 10 37 63 76 34 26 97 79 140 119 69 66 212
159 212 139 0 -5 -11 -37 -25 -71 -43 -110 -108 -195 -180 -235 l-30 -17 45 6
c25 3 72 19 105 34 62 29 271 198 360 290 27 28 51 51 52 51 2 0 -5 -17 -16
-37z m-801 -198 c-53 -53 -106 -98 -120 -101 -14 -3 -49 -13 -77 -23 -29 -11
-53 -17 -53 -16 0 2 19 26 43 54 35 42 64 62 167 115 69 35 127 64 130 65 2 0
-38 -42 -90 -94z m1090 -80 l0 -125 -43 33 c-24 18 -58 39 -75 46 l-32 14 72
77 c40 43 74 79 76 79 1 1 2 -55 2 -124z m-3767 -476 c22 -6 54 -25 73 -42
l34 -32 -65 -108 c-35 -59 -99 -147 -140 -195 -77 -88 -177 -228 -210 -292
-10 -19 -29 -64 -41 -100 l-23 -65 -20 46 c-39 88 -55 169 -54 284 0 214 70
363 213 455 90 58 154 71 233 49z m2932 -854 c84 -22 150 -56 225 -117 36 -28
81 -58 100 -64 l35 -13 -39 -16 c-98 -42 -163 -28 -246 51 -67 64 -105 71
-139 28 -32 -41 -26 -69 24 -123 82 -88 222 -132 330 -102 108 29 205 122 220
211 8 45 40 77 114 114 48 24 140 50 148 42 8 -7 -26 -225 -48 -306 -27 -103
-98 -243 -159 -317 -102 -122 -275 -228 -450 -274 -68 -18 -111 -23 -215 -22
-184 0 -304 30 -498 121 -82 38 -102 44 -125 36 -32 -11 -52 -56 -36 -82 28
-44 207 -128 363 -169 82 -22 119 -26 254 -27 l157 -1 11 -40 c26 -101 70
-185 139 -260 16 -18 41 -71 61 -130 19 -55 62 -157 95 -226 l62 -127 -72 -21
c-391 -115 -821 -148 -1236 -96 -74 10 -136 18 -137 20 -2 1 8 29 21 61 100
245 60 512 -125 849 l-44 80 15 53 c11 40 18 51 30 46 28 -12 42 -9 54 10 9
16 3 25 -49 70 -90 77 -295 280 -295 293 0 6 23 20 51 33 28 12 162 72 298
135 360 165 555 239 729 275 111 24 295 26 377 5z m-1275 -729 c0 -2 -10 -2
-22 -1 -14 1 -30 15 -43 36 l-20 34 43 -33 c23 -19 42 -35 42 -36z m901 -2000
c151 -4 392 -11 537 -17 205 -9 266 -8 277 1 35 29 8 -10 -103 -151 -80 -101
-138 -187 -178 -262 -32 -62 -78 -140 -101 -175 -56 -84 -58 -95 -30 -127 l23
-28 135 10 c74 6 135 9 137 8 2 -2 -28 -42 -67 -90 -57 -71 -240 -322 -438
-601 -39 -55 -40 -61 -10 -75 19 -9 69 1 260 50 252 65 267 68 267 49 0 -22
-305 -470 -477 -700 -141 -189 -568 -742 -626 -811 -18 -21 45 105 332 662 78
151 141 282 141 292 0 22 -26 49 -47 49 -30 0 -382 -81 -523 -121 -174 -49
-194 -52 -198 -23 -3 23 70 200 151 360 73 146 153 283 246 424 42 63 77 118
79 123 6 12 -103 8 -243 -8 -107 -13 -242 -37 -394 -72 -21 -5 -22 -3 -16 18
4 13 66 146 138 294 225 466 359 755 392 845 30 82 36 92 49 87 7 -3 136 -8
287 -11z"/>
<path d="M5549 9625 c-37 -20 -41 -35 -47 -161 l-4 -111 27 -21 c15 -12 38
-22 51 -22 56 0 103 126 96 258 -4 62 -63 90 -123 57z"/>
<path d="M6600 9614 c-35 -30 -60 -78 -60 -116 0 -71 52 -158 95 -158 86 0
141 199 74 266 -39 37 -71 40 -109 8z"/>
<path d="M6297 9223 c-16 -16 -4 -42 31 -66 70 -50 102 -120 82 -181 -25 -77
-108 -89 -206 -30 -121 74 -108 70 -138 51 -19 -13 -26 -26 -26 -51 0 -29 6
-38 48 -64 176 -114 322 -100 395 38 25 48 28 63 24 118 -6 83 -38 131 -108
166 -52 25 -89 33 -102 19z"/>
</g>
</svg>
