<svg width="853" height="859" viewBox="0 0 853 859" fill="none" xmlns="http://www.w3.org/2000/svg">
<path fill-rule="evenodd" clip-rule="evenodd" d="M831.862 699.602C818.982 864.625 594.152 888.319 549.27 729.314L549.242 729.324C549.084 728.706 548.745 727.468 548.565 726.857L548.593 726.851C544.611 711.275 543.126 694.417 544.257 678.094L544.26 678.094C546.412 644.412 560.769 610.744 583.811 586.141L583.813 586.144C590.235 579.191 597.293 572.93 604.827 567.388C619.063 610.313 639.708 648.699 665.871 680.625L664.859 681.874C666.12 682.571 667.373 683.268 668.625 683.97C669.059 684.494 669.53 685.082 669.958 685.623C668.211 690.082 671.919 694.408 676.304 695.261C674.968 698.398 678.239 699.638 680.202 700.203C686.67 701.682 694.269 702.004 699.166 698.381C705.489 692.597 703.269 681.184 696.435 676.848C696.462 676.775 696.486 676.7 696.51 676.626C695.595 676.529 694.767 676.19 694.087 675.635C690.668 674.314 686.678 674.328 683.33 675.806C660.594 638.875 637.794 598.739 625.176 554.984C630.506 552.323 636.047 549.967 641.673 547.993L641.67 547.985C641.821 547.934 642.276 547.781 642.419 547.728L642.419 547.731C647.641 545.935 653.017 544.431 658.426 543.266L658.425 543.261C658.902 543.164 659.897 542.955 660.377 542.853L660.378 542.859C670.019 540.918 680.064 540.002 690.067 540.144L690.068 540.143C690.443 540.149 691.866 540.178 692.328 540.187L692.327 540.196C695.726 540.29 699.223 540.541 702.637 540.869C702.603 540.995 702.55 541.159 702.484 541.349C702.763 541.364 703.035 541.406 703.301 541.471C703.34 541.3 703.381 541.129 703.419 540.959C706.113 541.263 708.835 541.631 711.511 542.085L711.511 542.084L713.427 542.415L713.426 542.422C747.774 548.482 780.139 568.854 801.221 596.763L801.22 596.764C810.117 608.352 817.268 621.264 822.493 635.173L822.495 635.172L823.334 637.448L823.329 637.449C830.349 657.004 833.287 678.474 831.828 699.603L831.862 699.602ZM586.265 482.969C534.624 532.118 477.341 577.842 433.619 634.639L425.443 629.704L426.268 629.546C423.536 629.275 421.009 626.721 418.986 625.059C423.344 625.365 424.732 626.174 427.329 621.201C436.428 604.856 444.275 588.181 454.086 572.048C462.113 557.826 470.147 543.738 478.169 529.369C482.408 523.179 489.491 506.701 477.817 498.416C508.403 484.468 543.642 467.713 576.308 447.388C578.951 459.336 583.075 470.893 586.864 482.411L586.265 482.969ZM410.777 396.53C406.4 392.508 401.581 388.626 399.384 382.794C406.146 383.906 412.835 384.547 420.303 384.67C420.729 384.67 421.122 384.27 421.127 383.824C421.279 375.222 421.267 365.752 420.488 356.559C424.159 358.377 427.108 356.302 430.432 354.52C433.914 357.12 437.51 356.349 441.765 354.521C441.805 354.509 458.958 348.158 458.997 348.152C462.822 346.956 464.464 345.816 465.427 343.387C465.922 343.518 466.92 343.779 467.414 343.906C471.522 349.995 531.132 368.9 536.431 361.889C541.974 364.24 548.602 362.338 554.47 361.918C559.057 362.303 563.72 363.334 568.3 362.754C569.204 367.498 570.12 372.244 571.038 376.985C558.729 394.911 556.898 403.03 560.405 424.567C561.163 429.023 562.633 430.519 568.122 431.167C535.506 449.013 502.707 466.116 470.5 485.198C475.056 474.411 479.585 463.418 483.873 452.637C485.395 449.326 487.432 444.462 487.594 439.931C488.855 423.108 436.318 407.682 415.736 402.113C415.154 399.719 412.512 398.307 410.777 396.53V396.53ZM578.325 427.367C578.562 426.958 579.491 425.005 579.717 424.553C580.242 425.547 581.273 427.388 581.932 428.284C580.647 428.745 577.502 430.464 576.256 431.121L578.325 427.367ZM395.365 513.021C394.811 515.263 394.308 517.392 393.822 519.439C381.653 525.777 369.552 531.572 357.344 537.783L357.73 538.495C350.821 542.535 343.304 544.98 336.518 549.175C331.213 526.308 327.169 503.143 324.163 479.796C326.964 479.693 329.748 479.43 332.579 478.853C335.404 478.924 338.051 478.612 340.299 477.87C356.001 489.45 372.616 500.169 389.691 509.753C391.589 511.016 393.566 511.427 395.711 511.622L395.365 513.021ZM393.393 686.408C391.488 686.22 389.763 688.215 387.929 688.871C382.236 691.813 376.675 694.808 371.202 697.858C369.306 686.846 364.565 676.655 364.241 665.268L364.058 665.612C363.369 664.275 361.969 661.892 361.163 660.609C362.511 660.923 365.06 661.507 366.39 661.809L366.241 662.016C367.963 661.719 370.313 662.811 371.943 663.022C377.853 664.139 383.889 665.285 389.883 666.155C388.341 668.557 388.425 668.687 391.279 668.692C389.646 671.964 389.267 675.924 389.424 679.371C389.47 679.997 389.723 679.872 390.042 680.117C390.675 681.915 391.914 683.154 394.02 683.942L393.393 686.408ZM341.329 561.234L340.794 559.563L341.458 559.339C341.352 559.078 340.937 558.929 340.612 558.996L340.551 558.805C356.93 551.817 372.96 543.96 389.115 536.516C379.629 563.884 360.776 587.543 356.042 616.569L353.546 616.732C347.985 597.966 343.437 578.744 339.039 560.156L339.821 559.892C339.713 560.71 340.526 561.425 341.329 561.234V561.234ZM353.119 696.769C351.34 697.374 349.19 697.589 347.209 697.386C338.597 695.728 329.823 694.373 321.264 693.033C326.132 646.362 310.561 598.813 278.815 564.573C290.62 553.841 303.145 542.538 316.525 530.533C329.029 591.173 343.242 651.033 354.231 696.395L353.119 696.769ZM300.135 678.383C300.057 682.102 299.823 685.864 299.484 689.567C264.014 684.03 225.896 678.273 187.593 673.69L189.3 671.85C191.447 669.213 187.835 664.88 185.699 663.671C181.689 661.284 177.194 662.186 172.757 664.297L171.287 662.24C179.48 654.827 187.687 647.477 195.844 640.024C205.322 644.062 214.916 647.55 224.478 651.249L224.104 653.548C226.24 653.558 228.392 653.278 230.437 653.486C254.059 662.291 278.986 670.764 300.156 677.423L300.135 678.383ZM297.804 701.729C296.361 709.794 294.219 717.751 291.485 725.434L291.465 725.424C261.631 819.799 132.244 851.892 65.0927 776.853C-10.331 703.04 26.4708 556.487 132.138 534.294C138.187 545.167 143.268 556.131 148.694 567.142C151.303 573.508 156.013 579.161 157.081 586.135C157.785 588.697 158.444 591.258 159.079 593.818C159.182 593.866 159.286 593.914 159.391 593.959C159.383 593.926 159.375 593.893 159.367 593.859L161.703 592.892C166.373 600.917 172.345 614.986 177.662 623.543C184.549 633.907 184.216 633.153 189.344 633.746C183.249 639.792 177.06 645.936 170.965 651.975C165.559 657.225 160.452 663.899 152.318 665.395C149.672 665.638 147.427 666.485 145.855 668.268C145.488 669.376 144.939 670.417 144.315 671.41C141.524 681.902 155.897 690.059 163.397 681.173C208.549 688.092 252.863 693.312 298.036 700.442L297.804 701.729ZM201.077 515.381C219.158 515.128 241.03 517.327 264.955 515.991C266.38 515.61 268.016 515.328 269.108 514.535C275.485 517.776 281.966 521.119 288.523 524.145C288.018 526.987 291.094 528.679 292.074 531.165C284.073 538.689 275.84 546.048 268.248 554.1C249.081 536.72 225.707 524.171 200.739 517.902L201.077 515.381ZM850.651 665.61C841.523 590.957 775.669 524.593 699.956 520.698L699.574 518.227C703.185 516.823 706.354 513.93 708.997 509.627C685.06 507.232 660.353 510.054 638.337 518.156C634.25 519.739 629.815 521.312 625.282 520.719C624.625 519.419 623.828 518.062 622.952 516.696C622.915 516.69 622.878 516.681 622.841 516.668C621.503 516.195 620.219 515.545 619.568 514.218C618.966 512.991 618.986 511.515 618.736 510.195C618.691 509.955 618.748 509.75 618.862 509.592C616.764 505.984 614.814 502.335 610.313 501.93L611.794 500.351C612.415 499.631 612.044 498.355 610.979 498.136C604.962 476.403 597.606 455.581 591.89 433.711L590.057 434.238C589.822 433.643 588.371 430.033 588.104 429.365L591.348 431.617L590.961 430.118C619.393 441.155 647.002 446.018 673.521 441.394L673.535 441.317C676.668 440.367 679.609 439.017 682.043 437.294C683.581 437.407 683.991 436.492 684.739 433.98C686.301 428.829 688.057 423.638 689.723 418.612C699.278 387.409 712.438 357.441 721.1 326.402C721.327 326.216 722.119 325.461 721.961 325.42C687.842 305.525 605.72 311.566 561.193 318.237C561.965 330.245 564.266 342.002 566.489 353.429C550.319 341.961 534.871 328.466 515.456 322.709L520.026 321.779C520.774 321.656 521.249 320.211 520.465 319.906L519.566 319.584C521.239 306.619 506.624 305.095 498.444 311.476C496.654 312.955 494.658 318.05 497.972 319.168L497.824 321.652C495.1 322.062 491.607 323.598 488.693 325.088C489.347 321.127 487.884 315.702 483.26 319.437C416.972 289.129 445.729 257.999 440.345 208.861C440.002 194.108 438.224 193.18 424.181 186.57C416.079 181.627 407.368 178.166 398.978 173.82L399.574 173.225C398.799 171.679 397.123 168.333 396.2 166.49L395.856 166.591C394.578 163.509 393.594 160.384 393.015 157.14C392.678 153.37 390.913 151.085 386.709 150.365C376.137 148.141 365.563 149.843 361.326 161.001L361.273 161.009C360.245 163.957 358.261 166.967 355.791 168.404L357.32 169.77C357.256 169.887 357.192 170.005 357.128 170.121L354.728 169.406C354.734 169.277 354.748 169.096 354.759 168.965C353.411 169.577 351.813 170.038 350.178 170.036C298.986 161.353 283.656 201.365 291.266 245.492C288.251 256.88 285.586 268.286 282.836 279.62C274.81 317.453 250.712 340.967 242.505 377.538C240.34 386.426 231.354 402.77 239.243 408.47C237.891 418.916 242.28 430.137 250.107 437.992C238.281 438.323 221.802 457.591 235.749 467.071C240.824 469.293 246.92 469.037 252.455 469.996L252.029 471.416C252.256 472.676 254.378 472.595 255.402 472.471C255.399 475.495 255.014 478.794 256.251 481.473C256.387 483 257.014 483.499 257.326 483.394C259.368 483.46 261.44 483.207 263.504 483.327C266.628 488.355 271.302 491.53 276.136 488.962C279.077 487.432 279.027 483.345 281.81 481.274C289.096 476.704 297.373 477.455 305.074 477.577C308.265 488.276 309.703 499.136 312.213 509.936C308.922 514.064 305.157 518.253 300.836 522.64L300.272 522.508L299.7 522.685C296.417 519.75 292.771 514.742 288.111 516.566C249.206 481.381 186.606 486.791 138.505 487.136C116.749 487.393 94.284 487.63 72.221 488.634C65.927 488.779 61.8667 489.244 61.6499 493.973C57.4893 494.154 54.3997 495.176 50.4861 495.479C48.0416 495.608 46.7679 495.804 46.6843 496.5C47.1573 503.25 47.4232 510.312 49.7787 516.616C52.2445 522.855 59.7661 522.85 65.5087 520.547C67.6631 519.624 65.8057 516.957 65.7426 515.326C64.4327 509.982 63.6148 504.514 63.3681 498.896C66.0829 499.108 68.4582 499.235 71.586 499.277L71.6391 500.725C77.1398 500.939 100.519 501.351 106.221 500.556C103.882 503.381 102.976 506.281 105.222 509.463C111.153 516.065 122.089 513.06 129.878 514.055L129.999 516.582C7.31227 539.399 -39.3987 705.716 49.5889 791.341C136.609 885.808 302.988 829.556 319.807 703.836C327.047 705.051 334.324 706.012 341.545 707.544C337.281 711.423 331.157 713.386 326.972 717.098C319.712 724.162 317.56 728.801 320.888 732.444L320.95 732.392C323.616 733.875 326.868 733.749 329.842 732.741C331.725 732.997 333.681 733.293 335.554 733.293C338.599 733.23 341.478 732.467 342.282 730.063C342.371 729.149 340.619 727.592 339.766 726.83C344.461 723.555 349.182 719.792 354.57 716.243C355.89 715.585 356.511 714.934 356.972 713.776C380.141 722.058 404.398 704.352 419.169 691.207C419.151 691.282 419.134 691.36 419.117 691.436C420.911 689.672 422.797 687.955 424.842 687.651C425.437 687.05 426.102 686.482 426.85 685.956L437.77 686.342C440.713 686.447 444.634 687.09 447.307 686.099C453.497 683.123 450.85 674.002 447.703 669.798C452.663 669.503 457.698 669.586 462.625 668.922C475.253 667.445 471.663 654.817 461.539 651.96C458.733 648.346 446.268 644.515 445.926 639.974C492.934 590.076 543.726 542.525 590.802 495.376C592.351 500.457 592.675 505.879 592.724 511.013C592.731 523.359 596.012 535.583 598.991 547.374C490.196 616.04 504.586 795.545 624.244 844.349C741.48 898.008 868.833 788.132 850.651 665.61V665.61Z" fill="white"/>
<path fill-rule="evenodd" clip-rule="evenodd" d="M709.147 509.041C706.752 512.986 703.489 516.569 699.006 518.312C761.007 522.332 816.462 565.133 839.054 621.763C895.644 755.111 763.582 904.785 622.703 844.418C501.356 792.445 487.397 617.988 596.491 545.702C594.093 536.288 591.666 526.71 590.722 517.035C590.513 514.677 590.46 512.304 590.408 509.933C590.311 505.498 590.213 501.067 589.086 496.737C542.22 542.852 495.357 588.979 449.055 635.64L447.476 637.242C447.385 637.335 447.276 637.434 447.161 637.54C446.726 637.939 446.197 638.424 446.174 638.925C446.697 640.944 450.798 643.219 454.65 645.356C457.534 646.956 460.279 648.479 461.279 649.76C472.438 653.48 475.858 667.062 461.774 669.082C458.642 669.516 455.474 669.625 452.31 669.734C451.174 669.773 450.039 669.812 448.907 669.866C451.857 674.621 452.981 683.519 446.747 686.181C444.381 687.046 441.575 686.842 438.955 686.652C438.179 686.595 437.418 686.54 436.691 686.514C433.202 686.391 429.714 686.267 426.226 686.143C420.772 690.254 420.225 696.889 419.689 703.407C419.451 706.296 419.215 709.162 418.554 711.775C415.995 730.899 402.726 743.534 382.819 743.538C360.904 745.073 338.243 743.897 316.999 738.132C316.926 738.245 316.78 738.347 316.638 738.295C313.926 736.646 316.861 733.136 318.458 731.654C314.031 726.251 321.124 718.817 325.052 715.065C327.007 713.219 329.453 711.893 331.905 710.565C333.849 709.512 335.795 708.458 337.502 707.141C333.628 706.367 329.719 705.76 325.811 705.154C323.816 704.844 321.822 704.535 319.833 704.203C299.215 831.101 139.394 886.219 47.6484 791.14C-41.369 702.621 2.77175 540.139 128.706 514.22C126.469 513.977 123.989 514.009 121.447 514.041C114.675 514.127 107.457 514.218 103.179 509.147C101.489 506.846 100.95 503.391 102.576 501.004C99.5259 501.318 48.3591 501.395 70.5341 499.449C68.2514 499.416 65.9739 499.338 63.704 499.172C63.8425 501.435 64.0605 503.695 64.3786 505.941C64.7596 508.648 65.3589 511.288 65.96 513.936C66.2207 515.085 66.4817 516.235 66.7254 517.393C67.028 518.827 66.3022 520.243 64.8325 520.668C58.3785 523.084 50.6653 523.194 47.5555 515.987C45.3515 510.11 44.9218 503.683 44.5041 497.434C44.4585 496.751 44.413 496.071 44.3654 495.394C44.4426 493.354 47.0373 493.217 49.3851 493.092C50.5099 493.033 51.5781 492.976 52.2855 492.715C54.6872 492.209 57.074 491.895 59.4978 491.679C60.273 486.514 66.2653 486.367 71.1558 486.246C72.3505 486.216 73.4795 486.188 74.4506 486.089C95.4357 485.234 116.442 484.991 137.446 484.748C142.975 484.684 148.503 484.62 154.031 484.545C154.996 484.53 155.964 484.516 156.934 484.501C201.775 483.821 251.925 483.06 287.396 514.036C291.562 512.847 294.869 516.098 297.683 518.863C298.133 519.306 298.571 519.736 298.998 520.134C299.13 520.093 299.263 520.091 299.391 520.121C303.026 516.407 306.527 512.568 309.791 508.509C308.902 504.634 308.142 500.725 307.382 496.817C306.136 490.403 304.89 483.989 303.069 477.723L302.809 477.715C295.835 477.517 287.581 477.282 281.581 481.163C280.395 482.117 279.752 483.46 279.112 484.795C278.309 486.471 277.511 488.137 275.649 489.013C270.063 491.992 264.706 488.056 261.756 483.477C260.849 483.448 259.95 483.486 259.053 483.524C258.117 483.563 257.182 483.603 256.242 483.566C254.663 483.478 254.177 482.141 253.972 480.717C252.954 478.378 253.004 475.83 253.052 473.353C253.056 473.143 253.06 472.933 253.063 472.724C251.587 472.813 249.269 471.598 249.767 469.94C248.319 469.729 246.85 469.584 245.379 469.439C241.527 469.059 237.659 468.677 234.117 467.098C219.973 458.437 233.733 438.086 246.544 435.999C239.67 428.407 235.823 418.099 236.864 407.923C230.838 403.069 234.862 391.783 237.961 383.093C238.905 380.446 239.762 378.04 240.224 376.129C243.398 361.549 249.994 348.073 256.534 334.713L256.833 334.103C258.861 330.188 260.757 326.64 262.535 323.314C270.612 308.205 276.237 297.683 280.55 278.236C281.175 275.661 281.795 273.084 282.415 270.507C284.521 261.755 286.627 253.002 288.927 244.302C288.755 243.014 288.595 241.842 288.446 240.758C287.403 233.148 286.949 229.838 287.373 220.724C288.496 183.832 306.52 161.684 349.323 167.66C354.745 167.297 357.639 163.682 359.233 158.893C359.38 158.563 359.89 158.807 359.805 159.13C359.09 162.447 357.992 166.219 354.986 168.177C353.49 185.689 381.874 191.539 393.855 182.854C397.519 180.576 398.475 178.559 398.56 174.416C396.919 172.407 396.631 169.927 396.343 167.446C396.189 166.116 396.035 164.785 395.671 163.528L400.101 172.37C402.759 173.717 405.452 174.988 408.143 176.258C413.428 178.752 418.706 181.242 423.697 184.304C437.95 191.039 440.221 192.213 440.59 207.64C441.912 222.473 440.871 235.1 439.954 246.235C437.511 275.868 435.941 294.927 482.103 316.852C486.353 313.881 489.289 317.661 489.059 321.875C491.462 320.706 493.875 319.768 496.563 319.284C492.203 317.953 493.905 311.643 496.607 309.37C505.437 302.663 520.609 303.891 519.865 317.593C521.895 318.32 521.273 321.513 519.249 321.925C532.724 326.616 544.186 335.108 555.539 343.518C558.219 345.503 560.892 347.483 563.584 349.408C561.471 338.518 559.486 327.555 558.837 316.517C558.67 316.459 558.639 316.205 558.814 316.129C558.521 314.302 559.256 314.016 559.734 315.905C593.047 309.9 627.248 309.675 661.026 310.126C679.236 310.354 697.563 312.779 714.492 319.642C714.927 319.867 715.62 320.126 716.417 320.423C719.536 321.589 724.243 323.348 721.261 325.953C720.658 329.746 719.393 333.433 718.139 337.091C717.925 337.716 717.711 338.34 717.501 338.964C717.007 340.337 716.514 341.709 716.02 343.081C707.302 367.327 698.585 391.57 690.529 416.039C690.317 416.675 690.105 417.311 689.893 417.948C688.28 422.791 686.666 427.635 685.151 432.508C685.079 432.738 685.009 432.98 684.938 433.228C684.384 435.144 683.718 437.445 681.411 437.463C679.032 439.087 676.381 440.306 673.632 441.19C668.413 471.131 644.146 493.335 622.491 513.15L622.087 513.519C623.157 515.089 624.174 516.713 625.059 518.398C629.175 518.761 633.031 517.299 636.848 515.851C638.734 515.135 640.611 514.423 642.506 513.937C663.463 507.138 686.187 505.074 708.101 507.246C708.96 507.332 709.683 508.212 709.147 509.041ZM577.87 800.811C653.809 881.709 790.057 851.461 829.3 750.063C883.268 622.905 755.074 480.718 622.187 542.899L622.254 543.131C622.886 545.309 623.516 547.484 624.172 549.653C699.012 511.642 794.199 552.094 823.386 628.491C874.165 748.116 755.828 882.572 629.356 828.415C522.711 783.274 507.984 629.513 601.505 563.272C600.779 560.964 600.079 558.648 599.404 556.327C520.209 610.641 510.163 733.683 577.87 800.811ZM709.55 694.964C707.385 693.205 705.231 691.436 703.086 689.651C702.929 691.234 702.531 692.786 701.868 694.248C704.43 694.48 706.99 694.722 709.55 694.964ZM698.188 692.005C698.09 692.179 697.987 692.351 697.88 692.519C697.885 692.535 697.889 692.549 697.894 692.564C697.898 692.578 697.903 692.593 697.908 692.608C698.008 692.409 698.1 692.21 698.188 692.005ZM697.549 693.031C697.369 693.298 697.18 693.563 696.977 693.82L697.136 693.835C697.3 693.626 697.452 693.407 697.587 693.18C697.581 693.155 697.575 693.13 697.568 693.105C697.562 693.081 697.555 693.056 697.549 693.031ZM689.144 690.302C689.131 690.534 689.147 690.609 689.17 690.609C689.211 690.609 689.283 690.34 689.229 690.33C689.234 690.33 689.203 690.322 689.144 690.302ZM686.826 681.815C687.825 683.029 688.874 684.304 689.242 685.854C689.477 686.859 689.398 687.792 689.295 688.774C689.794 688.382 690.252 687.843 690.714 687.298C691.887 685.917 693.091 684.5 695.056 685.345C695.408 680.455 689.442 676.997 685.056 678.533C685.011 678.584 684.864 678.842 684.907 678.933C685.273 679.927 686.034 680.852 686.826 681.815ZM683.112 694.284C683.112 694.087 683.145 693.886 683.214 693.699C682.183 694.589 680.934 695.148 679.59 695.423C679.929 695.529 680.282 695.624 680.626 695.718C680.997 694.93 682.171 694.571 683.053 694.302L683.112 694.284ZM679.862 676.429C679.062 676.683 678.162 676.968 678.172 677.721C678.47 677.674 678.214 678.018 678.067 678.034C678.705 678.18 679.336 678.389 679.947 678.649C679.962 677.805 680.268 676.837 680.678 676.128C680.458 676.24 680.167 676.332 679.862 676.429ZM673.753 684.25C674.051 684.695 674.349 685.14 674.63 685.597C676.201 688.273 672.18 690.611 670.365 688.064C670.47 688.396 670.603 688.714 670.762 689.009C670.885 688.908 670.986 689.098 670.844 689.155C672.23 691.543 675.207 692.483 677.946 692.436C677.799 690.548 678.016 690.523 678.136 692.424C685.286 691.497 684.082 679.812 672.342 681.317C672.265 681.383 672.188 681.453 672.114 681.524C672.578 682.495 673.166 683.373 673.753 684.25ZM603.144 568.368C595.878 573.816 588.985 580.101 582.81 586.899C600.233 606.64 617.212 626.82 634.183 646.991C640.569 654.581 646.955 662.17 653.363 669.735C654.082 670.588 654.814 671.435 655.546 672.284C657.365 674.391 659.19 676.505 660.847 678.724C661.84 679.27 662.836 679.808 663.845 680.327C636.709 647.173 616.714 608.676 603.144 568.368ZM544.417 678.482C543.433 694.63 545.011 711.082 549.09 726.534C573.69 717.622 598.556 709.404 623.418 701.187C635.42 697.221 647.421 693.254 659.39 689.211C639.032 684.914 618.286 683.968 597.531 683.021C579.753 682.21 561.969 681.399 544.417 678.482ZM634.307 699.164C609.768 707.273 585.228 715.382 560.599 723.223C559.732 723.5 558.864 723.785 557.994 724.072C555.068 725.034 552.119 726.003 549.134 726.693C594.531 885.786 814.091 862.891 829.413 699.848C790.571 701.835 751.559 700.791 712.886 696.524C733.696 712.445 755.091 727.614 776.474 742.775C785.213 748.972 793.95 755.167 802.644 761.411C803.183 761.895 802.493 762.653 801.9 762.359C770.513 742.076 740.495 719.492 711.224 696.323C707.98 695.924 704.741 695.481 701.514 694.984C700.991 695.972 700.339 696.892 699.557 697.688C712.454 740.093 721.604 783.803 726.105 827.848C726.152 828.523 725.023 828.672 724.902 828.007C718.602 784.348 710.293 740.98 698.888 698.308C693.296 702.376 685.349 701.78 678.89 700.345C682.815 744.503 686.235 788.765 688.875 833.002C688.811 833.977 687.274 834.294 687.056 833.243C683.337 788.969 680.751 744.543 678.31 700.171C675.851 699.409 673.127 697.732 673.753 695.025C671.494 694.327 669.523 692.811 668.367 690.899C667.15 692.695 665.93 694.488 664.709 696.281C662.229 699.924 659.75 703.566 657.307 707.232C657.804 706.838 658.3 706.444 658.797 706.05C663.137 702.602 667.48 699.152 671.95 695.886C672.473 695.503 673.091 695.967 673.207 696.492C670.201 699.887 666.267 702.72 662.336 705.55C659.55 707.555 656.767 709.559 654.317 711.761C635.391 740.591 618.996 771.029 605.56 802.699C605.001 804.022 602.779 803.458 603.336 802.097C615.569 771.748 631.073 742.725 649.331 715.458C641.163 721.679 632.954 728.016 624.73 734.364C608.056 747.235 591.321 760.153 574.756 772.245C594.454 756.514 614.282 740.935 634.126 725.385C636.141 723.81 638.156 722.235 640.171 720.66C644.163 717.539 648.154 714.418 652.144 711.3C656.625 704.772 661.308 698.379 666.281 692.225C658.544 697.103 650.819 702.026 643.089 706.953C619.481 721.998 595.828 737.073 571.65 750.982C571.04 751.116 570.722 750.461 571.078 750.014C589.552 737.651 608.781 726.113 627.979 714.594C641.414 706.532 654.834 698.48 667.969 690.161C667.197 688.545 666.966 686.693 667.51 684.795C667.387 684.64 667.264 684.487 667.141 684.335C667.011 684.176 666.882 684.017 666.753 683.86C631.73 664.259 593.965 646.582 557.311 632.086C591.464 644.006 624.491 658.92 656.186 676.176C648.413 666.756 640.595 657.364 632.775 647.972C615.943 627.753 599.107 607.53 582.712 587.005C559.99 611.902 546.399 644.745 544.43 678.278C560.624 680.328 577.009 680.815 593.391 681.302C617.831 682.028 642.263 682.754 666.038 688.669C667.161 689.042 666.687 690.546 665.558 690.377C664.453 690.211 663.352 690.015 662.255 689.8C659.747 690.848 657.142 691.677 654.543 692.504C653.599 692.804 652.656 693.104 651.718 693.414C645.914 695.328 640.111 697.246 634.307 699.164ZM798.592 595.689C767.927 622.735 736.07 648.902 702.389 672.192C699.478 672.198 703.706 669.149 705.742 667.679C706.182 667.362 706.52 667.118 706.662 666.995C738.016 644.12 768.372 619.964 798.41 595.452C777.187 568.045 745.902 548.501 711.573 542.468L711.305 544.495C706.077 583.898 700.848 623.314 697.923 662.963C715.519 628.551 734.93 593.498 758.207 563.071C737.746 596.71 717.317 630.412 699.832 665.667C699.401 666.521 698.983 667.396 698.562 668.275C698.153 669.129 697.743 669.988 697.316 670.839C697.262 671.335 697.234 671.843 697.207 672.352C697.155 673.327 697.103 674.309 696.862 675.229C701.205 678.456 703.524 684.018 703.117 689.299C705.736 691.227 708.352 693.16 710.965 695.1L711.606 695.161C716.098 695.587 720.589 696.013 725.087 696.39C759.805 699.358 794.725 699.845 829.526 698.243C830.972 676.978 827.967 655.423 820.675 635.637C781.106 647.494 741.973 660.786 703.392 675.428C702.373 675.753 701.683 674.163 702.661 673.721C741.145 658.681 780.601 645.981 820.611 635.46C815.338 621.137 807.878 607.622 798.592 595.689ZM642.449 547.615C644.723 552.085 646.791 556.603 648.738 561.213C649.548 562.82 652.089 569.902 647.943 567.95C646.515 566.433 645.668 564.419 644.963 562.499C643.229 557.833 641.72 553.12 640.49 548.297C635.46 550.086 630.471 552.191 625.676 554.55C638.062 596.935 659.8 635.656 682.84 673.134C686.081 671.944 689.824 671.992 693.04 673.18C695.269 669.107 695.396 666.829 695.618 662.838C695.645 662.354 695.673 661.844 695.707 661.302C699.092 621.495 703.096 581.588 710.881 542.345C708.393 541.914 705.892 541.551 703.376 541.256C703.303 541.571 703.229 541.888 703.154 542.206C702.634 544.413 702.097 546.697 701.93 548.96C701.894 549.353 701.655 549.817 701.209 549.89C696.474 550.17 698.822 543.682 699.773 541.056L699.834 540.886C696.649 540.596 693.445 540.412 690.224 540.341C687.081 582.964 685.577 625.664 685.13 668.381C685.092 669.112 684.017 669.11 683.975 668.381C683.312 625.677 685.447 582.819 689.875 540.331C679.41 540.121 668.951 541.066 658.838 543.161C664.645 582.146 671.297 621.005 678.585 659.735C678.657 660.45 677.549 660.533 677.356 659.899C669.335 621.352 662.889 582.38 658.236 543.288C652.898 544.414 647.633 545.855 642.449 547.615ZM595.168 510.164C595.349 514.375 595.53 518.586 596.324 522.751C606.957 580.436 633.36 634.831 670.59 680.503C670.598 680.501 670.606 680.501 670.616 680.501C669.873 677.216 675.41 677.442 677.49 677.91C676.795 676.829 678.418 675.708 679.55 674.925C679.845 674.721 680.106 674.541 680.285 674.389C648.658 635.121 613.978 554.919 611.669 504.943C611.669 504.575 612.249 504.484 612.328 504.855C614.383 514.222 616.768 523.532 619.328 532.791C641.234 522.606 664.982 517.55 689.23 517.889C690.44 517.322 691.58 516.766 692.514 515.871C693.133 515.572 693.686 515.446 694.267 515.313C694.485 515.263 694.707 515.213 694.938 515.152C696.252 514.382 697.697 513.81 699.14 513.239C701.577 512.275 704.007 511.314 705.785 509.406C686.16 507.646 666.21 509.362 647.199 514.46C640.316 516.79 633.412 519.056 626.399 520.984C626.65 521.374 626.833 521.827 627.017 522.28C627.325 523.04 627.632 523.799 628.258 524.263C629.592 525.394 628.502 527.317 627.081 527.735C624.709 528.436 623.772 526.08 623.28 524.331C622.179 520.415 620.885 516.5 618.894 512.924C618.285 511.82 617.738 510.662 617.191 509.502C615.618 506.17 614.035 502.816 610.915 500.634C609.745 500.927 608.523 500.909 607.307 500.891C606.758 500.883 606.211 500.875 605.67 500.896C603.179 500.934 600.705 501.296 598.241 501.657C597.047 501.832 595.855 502.006 594.664 502.143C594.937 504.809 595.052 507.486 595.168 510.164ZM590.982 486.725C591.717 489.11 592.453 491.495 593.123 493.9C593.664 495.951 594.082 498.01 594.393 500.077C598.378 497.428 603.205 496.233 607.958 495.833C605.336 486.094 602.387 476.371 599.44 466.655C595.773 454.562 592.109 442.481 589.083 430.398C589.073 430.265 589.08 430.129 589.095 429.993L588.83 429.853C586.183 428.453 584.216 427.413 581.046 428.244C579.149 428.626 577.559 429.508 577.221 431.444C577.171 431.731 576.988 431.883 576.766 431.935C580.607 444.428 584.42 456.975 586.686 469.877C587.562 475.636 589.271 481.178 590.982 486.725ZM500.1 581.146C510.77 570.351 521.442 559.556 532.196 548.842C550.747 530.263 569.442 511.818 588.252 493.496C587.501 490.948 586.704 488.417 585.906 485.884C585.466 484.488 585.025 483.091 584.592 481.689C564.789 503.139 543.448 523.303 522.107 543.468C491.791 572.112 461.473 600.759 435.557 633.094C435.459 633.22 435.354 633.336 435.241 633.439C435.947 633.428 441.836 634.133 438.759 634.259C439.643 634.479 440.256 635.596 439.355 636.121C440.813 637.001 442.271 637.882 443.729 638.762C444.021 636.856 446.063 634.997 447.98 633.253C449.006 632.32 449.996 631.419 450.662 630.562C467.335 614.289 483.716 597.718 500.1 581.146ZM460.348 652.299C459.871 651.979 459.377 651.648 459.286 651.075C451.322 646.258 443.36 641.44 435.4 636.617C434.382 636.837 433.26 636.876 432.131 636.914C429.59 637 427.017 637.088 425.536 639.256C425.595 639.616 425.462 640.012 425.116 640.181C424.415 640.94 422.772 640.677 422.722 639.278C422.83 636.006 427.847 634.306 430.566 633.689C428.455 632.41 426.345 631.132 424.235 629.854C421.658 630.427 419.126 631.194 416.649 632.095C416.363 632.199 416.056 632.341 415.738 632.488C414.883 632.884 413.947 633.318 413.114 633.137C413.079 633.177 413.047 633.216 413.018 633.255C412.985 633.299 412.955 633.343 412.928 633.387C412.983 633.41 413.037 633.434 413.09 633.457C413.259 633.53 413.411 633.596 413.505 633.621C414.538 633.908 414.279 635.357 413.259 635.407C411.668 635.486 409.098 635.057 409.632 632.854C411.012 629.76 416.938 628.458 420.272 627.726C420.386 627.701 420.497 627.676 420.604 627.653C420.134 627.37 419.66 627.081 419.18 626.788C414.232 623.771 408.771 620.441 402.879 620.972C401.999 621.586 400.93 621.542 399.937 621.244C396.106 622.044 392.644 623.994 389.475 626.199C387.145 627.612 385.072 629.496 383 631.379C379.523 634.539 376.05 637.695 371.37 638.618C365.028 639.473 356.754 633.002 355.276 627.282C355.135 627.262 354.994 627.229 354.855 627.187C352.884 633.537 352.947 640.185 353.129 646.728C364.257 647.431 375.377 648.316 386.498 649.201C403.539 650.557 420.585 651.914 437.668 652.618C442.927 652.875 448.185 653.107 453.446 653.313C455.922 653.435 458.346 653.397 460.672 652.523C460.568 652.447 460.458 652.374 460.348 652.299ZM353.057 647.378C353.032 647.567 353 647.757 352.964 647.947C353.672 647.819 354.401 647.795 355.129 647.801C354.407 647.712 353.694 647.592 353.057 647.378ZM459.927 665.899C469.79 665.531 470.538 658.496 462.494 653.742C461.495 654.343 460.188 654.411 459.02 654.471C458.696 654.488 458.383 654.504 458.09 654.531C457.622 655.982 452.912 655.592 449.214 655.287C447.54 655.148 446.073 655.027 445.301 655.101C430.533 654.766 415.812 653.492 401.1 652.219C386.187 650.928 371.282 649.638 356.344 649.327C356.169 649.326 355.987 649.323 355.802 649.32C354.264 649.293 352.466 649.263 351.671 650.455C351.649 653.515 352.388 656.018 355.843 656.461C378.208 661.966 401.07 665.371 424.097 666.317C435.995 666.774 448.051 666.9 459.927 665.899ZM442.92 679.599C442.918 678.805 442.915 678.013 442.926 677.219C442.931 676.879 442.962 676.473 442.995 676.044C443.04 675.459 443.088 674.831 443.079 674.266C438.991 673.849 434.9 673.439 430.802 673.137C431.012 673.588 431.117 674.082 431.092 674.563C431.775 675.19 432.16 676.167 432.023 677.114C432.519 677.893 432.689 678.851 432.438 679.704C435.929 679.78 439.422 679.747 442.92 679.599ZM353.055 709.772C376.807 720.502 400.39 703.374 417.729 688.603C418.203 687.643 418.768 686.736 419.44 685.902C416.262 685.66 413.102 685.622 409.949 685.585C404.313 685.519 398.703 685.452 393.066 684.218C395.459 686.735 391.904 687.893 389.306 688.739C388.607 688.967 387.978 689.172 387.551 689.374C382.134 691.507 376.684 693.561 371.205 695.534C373.151 713.3 356.053 710.288 352.129 696.579C350.924 696.876 349.7 696.969 348.454 696.914C348.219 697.209 347.843 697.408 347.376 697.341C343.01 696.716 338.659 695.963 334.309 695.21C332.13 694.833 329.951 694.455 327.771 694.094C324.169 693.546 320.573 692.931 316.976 692.316C310.356 691.184 303.734 690.052 297.068 689.334C297.075 689.263 297.083 689.19 297.088 689.12C286.289 687.517 275.493 685.848 264.694 684.178C233.058 679.286 201.402 674.392 169.584 671.156C168.068 671.009 166.791 669.88 167.022 668.268C167.018 668.272 167.014 668.274 167.01 668.276L167.007 668.278C166.826 669.333 166.721 670.428 166.616 671.528C166.284 674.991 165.947 678.508 163.216 681.033C222.879 686.351 282.283 695.01 341.285 705.065C344.721 705.946 347.888 707.403 351.076 708.869C351.734 709.171 352.393 709.474 353.055 709.772ZM386.045 738.865C405.936 737.908 412.84 722.421 414.466 705.065C414.604 703.987 414.72 702.865 414.838 701.719C415.113 699.044 415.402 696.241 416.016 693.581C399.951 707.228 378.695 721.113 356.592 714.213C356.124 715.135 355.133 715.7 354.173 716.247C353.749 716.489 353.332 716.727 352.968 716.99C348.901 719.948 344.826 722.904 340.749 725.846C342.209 727.203 343.364 729.08 341.744 730.789C338.54 734.261 333.546 733.575 329.191 732.978L328.92 732.941C326.113 733.827 322.854 734.074 320.11 732.789C318.649 734.003 317.094 735.548 317.054 737.503C317.272 737.304 317.325 737.467 317.248 737.676L317.502 737.694C340.278 739.351 363.251 741.022 386.045 738.865ZM327.637 715.502C324.174 718.777 320.686 722.818 319.733 727.563C319.453 729.928 321.569 730.529 323.504 730.355C323.832 729.904 324.734 729.737 325.271 730.02C326.446 729.674 327.57 729.126 328.651 728.589C337.427 724.323 345.731 719.156 353.209 712.946C352.177 712.614 350.761 711.928 349.214 711.18C345.903 709.578 341.998 707.688 340.009 708.365C338.963 709.004 337.932 709.666 336.901 710.327C333.922 712.239 330.946 714.149 327.637 715.502ZM55.4115 783.803C129.05 861.506 261.386 832.879 299.758 734.952C304.095 724.47 307.245 713.626 309.197 702.517C306.324 702.066 303.452 701.62 300.576 701.176C281.719 813.79 143.094 864.203 61.2493 778.314C-15.2583 701.097 19.4935 556.369 128.478 529.953C127.96 528.464 127.557 526.947 127.311 525.392C11.9245 552.215 -26.6388 702.236 55.4115 783.803ZM259.995 559.132C233.201 535.084 197.78 521.272 161.477 521.402C150.21 521.402 139.132 522.657 128.334 525.15C128.729 526.682 129.278 528.159 129.93 529.598C174.397 518.729 223.129 532.324 255.962 563.746C256.977 562.738 257.996 561.729 259.013 560.721C259.077 560.327 259.352 559.981 259.622 559.641C259.757 559.471 259.891 559.303 259.995 559.132ZM120.788 510.96C123.122 510.911 125.321 510.864 127.127 511.049C138.612 511.461 149.984 511.251 161.477 510.817C186.416 512.181 211.349 512.559 236.305 512.937C245.328 513.074 254.354 513.211 263.384 513.394C263.481 513.249 263.606 513.118 263.758 513.006C252.982 506.737 241.339 500.724 228.6 500.027C201.81 498.918 174.954 499.565 148.106 500.213C133.163 500.574 118.222 500.934 103.297 500.991C102.399 502.73 102.715 504.845 103.771 506.526C106.775 511.257 114.302 511.098 120.788 510.96ZM63.6117 497.453C70.7295 496.688 77.901 496.284 85.0637 496.102C132.211 495.002 179.458 493.903 226.597 495.394C232.432 495.908 237.995 497.151 243.43 499.063C246.641 499.93 249.788 501.022 252.835 502.365C255.442 503.478 257.858 504.921 260.274 506.365C262.595 507.751 264.917 509.138 267.408 510.233C269.454 511.256 271.509 512.267 273.564 513.279C278.54 515.728 283.519 518.179 288.391 520.807C289.691 521.508 289.51 522.892 288.688 523.653C289.178 524.482 289.816 525.209 290.451 525.933C290.619 526.124 290.787 526.315 290.952 526.508C291.655 525.933 292.378 525.38 293.101 524.826C294.228 523.964 295.355 523.101 296.413 522.153C295.936 521.741 295.37 521.145 294.743 520.484C292.494 518.113 289.457 514.912 286.924 516.433C286.76 516.546 286.588 516.536 286.447 516.458C249.141 486.539 198.256 486.286 151.99 487.66C127.674 487.844 103.354 488.171 79.0413 488.647C77.8866 488.827 75.9743 488.782 73.8056 488.732C68.4405 488.607 61.5061 488.445 60.5903 491.551C63.6089 491.489 63.6091 494.513 63.6092 496.826C63.6092 497.042 63.6092 497.252 63.6117 497.453ZM60.3903 514.976C60.081 515.954 59.4177 516.616 58.6411 516.924C59.3567 516.826 60.0748 516.657 60.7725 516.453C60.6365 515.964 60.5109 515.472 60.3903 514.976ZM288.083 527.903C287.289 526.922 286.494 525.938 286.225 524.721C286.179 524.5 286.157 524.183 286.172 523.837C280.736 521.31 275.387 518.586 270.041 515.865C269.403 515.54 268.764 515.215 268.126 514.89C267.4 515.325 266.326 515.594 265.33 515.844C265.143 515.891 264.958 515.937 264.779 515.983C264.523 516.447 264.046 516.783 263.341 516.77C242.233 516.371 221.126 515.968 200.018 515.553C224.91 521.808 248.048 534.152 267.143 551.21C272.692 545.385 278.591 539.901 284.492 534.416C286.144 532.88 287.796 531.344 289.441 529.801C289.076 529.132 288.58 528.518 288.083 527.903ZM160.309 608.028C158.583 600.41 156.858 592.794 154.79 585.294C154.164 581.052 152.039 577.205 149.908 573.349C148.666 571.101 147.422 568.85 146.473 566.516C145.113 563.762 143.774 561.007 142.437 558.255C138.585 550.327 134.747 542.428 130.456 534.661C127.706 535.329 124.975 536.087 122.269 536.939C131.83 566.647 140.644 596.614 149.45 626.56C151.833 634.661 154.215 642.761 156.611 650.853L156.8 650.821C160.122 650.244 163.608 649.639 166.283 647.487C167.758 646.299 169.861 648.265 168.587 649.51C165.451 652.175 161.364 652.959 157.31 653.737C152.297 654.699 147.336 655.651 144.29 660.138C143.105 662.04 142.669 664.47 143.944 666.259C145.639 664.021 148.452 663.382 151.11 663.018C157.375 661.885 161.94 657.193 166.262 652.749C167.194 651.791 168.114 650.845 169.038 649.949C173.986 645.047 178.932 640.139 183.877 635.232L185.455 633.666C179.757 633.151 171.398 616.027 165.317 603.57C162.973 598.769 160.968 594.662 159.584 592.466C160.784 597.711 162.054 602.945 163.324 608.18C166.2 620.028 169.076 631.882 171.139 643.885C171.206 644.454 171.211 645.021 171.217 645.588C171.222 646.08 171.227 646.572 171.272 647.066C171.284 647.179 171.119 647.183 171.081 647.091C166.294 634.454 163.301 621.237 160.309 608.028ZM205.089 719.103C201.964 717.261 207.719 714.515 209.398 716.285C209.475 716.34 209.498 716.421 209.482 716.489C230.857 716.462 252.195 717.859 273.449 720.022C276.234 720.31 279.014 720.637 281.792 720.987C282.685 721.164 283.615 721.248 284.546 721.333C286.347 721.497 288.157 721.661 289.73 722.495C292.233 715.284 294.159 707.905 295.508 700.395C272.168 696.725 248.759 693.523 225.35 690.321C204.492 687.468 183.633 684.615 162.823 681.431C153.749 690.767 138.247 681.031 142.354 669.069C137.311 664.332 141.434 656.543 146.768 653.88C149.386 652.401 152.274 651.657 155.209 651.106C152.354 641.479 149.47 631.858 146.585 622.235C138.096 593.916 129.603 565.583 121.835 537.075C22.0486 567.893 -6.47461 702.645 64.9859 774.862C134.403 849.055 256.113 818.585 288.776 725.166C285.984 724.914 283.191 724.66 280.396 724.406C258.096 722.378 235.716 720.342 213.301 719.627C212.641 719.598 211.975 719.578 211.306 719.557C209.226 719.494 207.119 719.43 205.089 719.103ZM307.031 516.078C306.498 516.556 305.966 517.031 305.452 517.513C283.875 538.446 262.624 559.705 241.372 580.964C227.467 594.874 213.562 608.784 199.565 622.603C194.331 627.489 189.336 632.672 184.338 637.858C175.778 646.741 167.211 655.631 157.419 663.048C156.032 663.827 154.537 664.46 152.99 664.856C152.487 664.965 151.963 665.055 151.434 665.145C149.113 665.543 146.688 665.96 145.378 668.086C140.065 677.042 151.132 687.185 159.817 680.954C159.689 680.964 159.38 680.857 159.62 680.758C161.949 680.149 163.471 676.982 163.903 674.752C160.607 676.5 158.626 673.255 156.963 670.53C156.532 669.823 156.122 669.152 155.716 668.611C154.92 668.558 154.113 668.708 153.278 668.862C152.979 668.918 152.678 668.973 152.372 669.021C148.114 668.873 151.238 665.113 155.362 666.347C157.392 666.074 159.448 667.516 161.082 668.674C161.486 668.939 161.931 669.141 162.374 669.342C163.082 669.664 163.785 669.984 164.308 670.554C164.36 669.903 164.424 669.251 164.532 668.606C162.728 668.096 161.669 665.94 162.334 664.223C162.582 663.031 163.78 662.045 165.055 662.026C165.024 662.031 164.993 662.036 164.963 662.041C164.923 662.047 164.884 662.054 164.844 662.061C164.952 662.051 165.586 661.953 165.559 661.939C166.2 661.997 167.044 662.187 167.363 662.761C194.009 637.868 221.114 613.424 248.22 588.978C270.262 569.1 292.305 549.221 314.103 529.099C312.94 523.589 311.787 518.079 310.638 512.569C309.553 513.822 308.286 514.956 307.031 516.078ZM165.54 661.937C165.55 661.937 165.556 661.938 165.559 661.939C165.552 661.938 165.546 661.938 165.54 661.937ZM195.066 640.415C189.336 645.617 183.603 650.818 177.874 656.015C192.658 652.809 207.911 652.051 222.981 651.335C220.367 650.324 217.745 649.326 215.122 648.328C208.398 645.77 201.669 643.21 195.066 640.415ZM171.156 662.04C175.532 659.887 180.92 658.762 185.278 661.438C188.247 663.051 192.064 668.534 189.208 671.612C225.343 675.98 261.337 681.378 297.291 686.983C297.57 683.757 297.747 680.514 297.819 677.247C278.636 671.208 259.602 664.688 240.678 657.895C236.764 656.476 232.855 655.034 228.954 653.578C226.623 653.618 224.289 653.679 221.957 653.757C212.984 653.937 204.045 654.713 195.108 655.489C189.047 656.015 182.986 656.542 176.917 656.882C176.264 657.469 175.592 658.051 174.916 658.636C173.64 659.741 172.352 660.856 171.156 662.04ZM310.964 689.155C311.192 686.557 311.359 683.946 311.459 681.322C308.597 680.534 305.75 679.694 302.91 678.828C302.815 681.829 302.633 684.815 302.369 687.787C305.234 688.238 308.099 688.694 310.964 689.155ZM266.859 575.13C290.738 602.811 303.539 639.182 302.977 675.72C305.827 676.577 308.684 677.409 311.551 678.203C312.459 638.939 298.178 599.873 271.681 570.74C271.148 571.225 270.615 571.711 270.081 572.196C269.007 573.174 267.933 574.151 266.859 575.13ZM279.591 563.552C292.32 577.582 302.449 593.583 309.738 611.204C320.118 636.152 324.168 663.778 321.621 690.846L321.839 690.88C330.049 692.165 338.27 693.451 346.419 695.021C348.19 695.159 349.986 695.016 351.676 694.448C338.608 640.475 325.948 586.284 314.688 531.869C302.959 542.396 291.256 552.952 279.591 563.552ZM354.997 696.72C354.863 696.342 354.744 695.942 354.647 695.547C354.76 695.939 354.877 696.331 354.997 696.72ZM391.843 675.2C393.842 669.911 399.736 667.671 403.218 672.987C407.893 682.882 389.646 684.467 391.843 675.2ZM387.108 678.288C387.051 675.109 387.15 671.768 388.359 668.81C387.016 668.77 386.093 667.156 386.772 666.022C381.473 665.206 376.192 664.263 370.942 663.194C370.472 663.206 369.694 662.987 368.836 662.745C366.774 662.165 364.256 661.456 364.478 663.514C364.55 670.415 366.41 677 368.269 683.586C369.317 687.296 370.364 691.007 371.093 694.773C376.142 691.972 381.23 689.251 386.361 686.597C387.07 686.318 387.745 685.889 388.422 685.46C389.711 684.641 391.004 683.82 392.535 684.032C390.524 683.275 388.844 682.018 387.985 679.896C387.485 679.606 387.123 679.072 387.108 678.288ZM363.184 661.518C363.057 661.49 362.93 661.463 362.803 661.433C362.875 661.552 362.942 661.674 363.009 661.797C363.061 661.7 363.12 661.608 363.184 661.518ZM320.556 478.053C316.158 477.584 311.762 477.072 307.368 476.551C310.957 495.263 315.241 513.823 319.525 532.383C324.046 551.973 328.568 571.563 332.272 591.332L332.838 594.149C339.624 627.919 346.424 661.758 356.44 694.775C356.591 695.253 356.734 695.737 356.878 696.222C357.698 698.987 358.533 701.802 360.693 703.884C363.307 705.861 366.541 706.176 368.096 703.075C368.628 701.222 368.259 699.374 367.882 697.492C367.824 697.201 367.766 696.91 367.711 696.617C366.707 691.789 365.882 686.895 365.056 682.002C363.863 674.936 362.671 667.872 360.946 661.011C349.856 658.899 348.02 657.162 348.697 645.909L348.704 645.786C348.972 641.292 349.242 636.758 350.113 632.338C350.675 629.679 351.634 627.071 352.842 624.571C352.893 623.018 352.996 621.471 353.147 619.931C350.634 619.961 350.011 617.321 349.451 614.952C349.238 614.052 349.035 613.192 348.741 612.532C348.614 612.106 348.487 611.68 348.361 611.255C347.741 609.173 347.121 607.093 346.512 605.012C334.221 563.502 324.957 521.035 320.556 478.053ZM340.01 558.88C340.041 558.86 340.074 558.9 340.059 558.928C339.838 559.354 339.413 559.109 339.254 558.754C343.73 577.673 348.215 596.605 353.742 615.261C356.491 597.936 364.446 582.375 372.401 566.816C377.264 557.303 382.127 547.791 385.8 537.877C381.575 539.834 377.345 541.822 373.111 543.811C362.107 548.981 351.073 554.166 340.01 558.88ZM350.572 541.972C346.218 544.27 341.866 546.566 337.533 548.882C337.363 548.938 337.186 548.945 337.015 548.915C337.722 552.111 338.448 555.303 339.192 558.492C339.222 557.87 340.074 557.447 340.697 557.138C340.863 557.056 341.013 556.982 341.126 556.914C346.371 553.927 351.791 551.252 357.207 548.578C357.805 548.283 358.403 547.988 359 547.693C361.654 546.39 364.306 545.083 366.957 543.776C373.693 540.454 380.427 537.133 387.205 533.9C388.784 529.221 389.994 524.439 391.152 519.638C377.914 527.546 364.231 534.765 350.572 541.972ZM325.189 482.933C325.361 484.279 325.53 485.611 325.922 486.921C326.963 502.322 330.256 517.517 333.54 532.667C334.508 537.133 335.475 541.595 336.384 546.057C339.519 544.224 342.827 542.72 346.138 541.215C349.497 539.687 352.859 538.159 356.045 536.284C349.908 539.321 343.76 542.337 337.538 545.177C348.394 539.112 359.627 533.536 370.857 527.962C377.828 524.501 384.798 521.041 391.676 517.466C392.14 515.51 392.604 513.557 393.086 511.606C391.222 511.375 389.567 510.739 387.97 509.726C370.973 500.189 354.69 489.694 339.02 478.171C336.681 478.869 334.129 479.071 331.659 479.028C329.367 479.478 327.037 479.775 324.707 479.892C324.931 480.911 325.06 481.926 325.189 482.933ZM376.833 632.156C383.315 626.915 390.264 621.718 398.347 619.175C397.776 616.102 397.982 612.852 399.173 609.956C380.604 609.947 368.629 611.633 356.862 626.991C356.967 627.295 357.284 627.462 357.564 627.61C357.905 627.79 358.19 627.941 357.97 628.272C362.42 633.939 370.795 637.805 376.833 632.156ZM274.454 483.481C275.713 480.147 277.81 477.124 281.261 475.696C281.589 475.543 281.923 475.399 282.256 475.263C273.208 474.68 264.296 473.382 255.464 471.334C255.607 471.942 255.73 472.561 255.853 473.182C256.226 475.065 256.604 476.969 257.58 478.658C262.037 477.3 264.846 479.486 267.216 482.97C269.004 485.029 272.907 486.717 274.454 483.481ZM243.666 383.045C242.504 384.998 241.583 387.064 240.901 389.201C239.508 393.564 239.106 398.216 239.647 402.775C272.286 382.382 312.554 377.275 350.157 384.39C359.605 385.736 369.22 386.437 378.716 385.147C377.214 376.703 377.943 368.028 378.662 359.472C378.807 357.749 378.952 356.03 379.077 354.32C379.468 348.541 380.12 342.3 384.171 337.765C363.334 334.059 342.531 327.385 324.742 315.902C299.636 299.432 295.647 279.272 290.518 253.347C290.17 251.587 289.816 249.8 289.45 247.986C287.055 267.926 282.87 280.643 277.25 297.725C276.187 300.953 275.074 304.338 273.911 307.956C270.104 318.743 265.234 328.641 260.402 338.46C253.501 352.486 246.679 366.351 243.148 382.412C243.469 382.296 243.869 382.705 243.666 383.045ZM346.551 170.822C319.541 168.909 302.152 172.379 295.801 197.321C287.008 233.184 295.497 266.837 312.292 299.6C327.664 321.389 356.391 327.163 381.802 332.27C382.645 332.44 383.485 332.609 384.32 332.777C385.458 331.863 388.359 332.899 391.125 333.886C393.116 334.597 395.036 335.283 396.179 335.199C396.336 335.025 396.492 334.811 396.664 334.662C396.332 334.953 396.333 334.952 396.44 334.842C396.544 334.736 396.748 334.529 396.846 334.385C398.412 332.098 399.546 329.502 400.64 326.973C400.642 326.968 400.647 326.954 400.652 326.946C400.653 326.937 400.657 326.929 400.663 326.92C401.911 323.992 403.028 321.708 404.145 319.425C405.261 317.144 406.377 314.863 407.624 311.938C357.353 301.135 318.138 265.265 332 215.012C332.07 214.813 332.377 214.841 332.38 215.062C332.389 216.923 332.366 218.783 332.342 220.643C332.293 224.518 332.244 228.392 332.491 232.27C334.169 268.664 356.247 285.983 390.619 300.723C386.894 277.906 378.685 261.091 370.88 245.104C359.983 222.784 349.873 202.076 353.853 168.895C351.69 170.095 349.138 170.622 346.551 170.822ZM401.748 179.947C393.233 194.282 369.183 193.132 358.19 182.119C357.223 181.113 356.348 179.994 355.609 178.805C356.629 207.839 365.514 225.662 374.899 244.486C382.335 259.401 390.083 274.943 394.482 297.188C395.138 289.741 395.75 282.99 396.318 276.722C399.496 241.675 401.303 221.742 401.748 179.947ZM420.83 185.673C416.048 182.114 410.924 178.975 405.406 176.626L405.266 176.556C404.524 176.182 403.765 175.8 403.011 175.395C407.395 214.602 405.426 237.394 402.777 268.046C401.846 278.826 400.83 290.579 399.978 304.36C404.067 305.717 408.252 306.814 412.499 307.626C414.859 308.08 414.892 311.3 413.279 312.412C413.128 312.685 412.975 312.238 412.831 311.819C412.697 311.428 412.572 311.061 412.463 311.328C412.466 311.317 412.472 311.303 412.48 311.284C412.485 311.271 412.491 311.257 412.497 311.24C412.048 312.297 411.637 313.368 411.226 314.438C414.482 315.159 417.658 316.231 420.829 317.3C424.647 318.589 428.457 319.874 432.387 320.539C429.613 318.307 426.83 316.002 424.6 313.226C423.785 312.092 423.085 311.866 422.248 311.596C421.639 311.398 420.957 311.178 420.106 310.565C420.066 311.457 420.023 312.023 419.988 312.486C419.92 313.373 419.882 313.882 419.945 315.582C419.994 316.915 418.016 316.852 417.878 315.582C417.646 314.1 417.416 312.684 417.193 311.311C415.971 303.784 414.965 297.592 415.068 289.337C415.075 286.027 415.073 282.875 415.072 279.851C415.056 251.736 415.046 234.664 422.261 204.584C422.322 204.43 422.523 204.463 422.543 204.621C422.813 206.694 422.728 208.777 422.643 210.86C422.627 211.247 422.611 211.634 422.597 212.021C422.123 219.417 421.634 225.917 421.182 231.927C419.633 252.541 418.517 267.381 419.893 292.812C420.137 294.4 420.098 296.306 420.058 298.281C419.971 302.513 419.878 307.06 422.546 309.465C426.038 313.297 430.236 315.172 434.658 317.148C436.898 318.149 439.195 319.175 441.487 320.494C442.152 321.009 442.946 320.85 443.738 320.692C444.035 320.633 444.331 320.573 444.621 320.549C446.511 320.224 448.355 320.025 450.245 320.476C454.823 321.582 457.99 325.385 460.666 328.944C464.183 326.878 468.225 326.331 472.273 325.784C475.209 325.387 478.148 324.99 480.892 324.012C480.649 323.417 480.449 322.805 480.32 322.188C430.44 297.181 431.387 281.877 435.368 233.286C435.427 230.409 435.496 227.869 435.559 225.541C435.837 215.23 436.003 209.094 434.785 196.405C433.866 191.845 430.292 190.305 426.497 188.671C424.557 187.835 422.56 186.974 420.83 185.673ZM484.288 322.696C484.983 324.162 485.832 325.95 483.811 326.701C479.657 328.224 475.279 328.678 470.894 329.132C467.856 329.447 464.814 329.762 461.841 330.434C462.101 330.787 462.532 331.216 463.004 331.686C464.592 333.268 466.646 335.314 464.242 336.512C464.36 336.767 464.472 337.026 464.583 337.291C469.602 336.656 474.642 336.14 479.682 335.624C483.027 335.281 486.373 334.939 489.713 334.562C486.909 330.613 485.423 325.891 485.24 321.091C485.065 321.651 484.651 322.162 484.18 322.47C484.215 322.544 484.251 322.62 484.288 322.696ZM554.08 348.157C537.213 335.551 518.854 321.83 496.615 322.745C494.168 322.707 491.616 322.704 489.164 322.976C489.459 326.043 490.584 329.032 492.203 331.666C512.244 328.402 529.95 339.839 543.256 353.392C549.548 358.099 557.807 358.693 565.433 358.916C565.159 357.487 564.88 356.056 564.602 354.623L564.5 354.101C561.975 354.276 560.055 352.719 558.157 351.18C557.33 350.509 556.507 349.842 555.641 349.323C555.122 348.935 554.602 348.547 554.08 348.157ZM513.465 313.521C511.497 309.26 504.668 311.344 501.306 312.782C500.577 313.201 499.992 313.664 499.564 314.287C500.549 314.62 501.234 315.62 501.224 316.598C505.413 317.255 509.679 317.581 513.924 317.5C514.063 316.229 514.024 315.143 513.665 314.078C513.668 314.085 513.45 313.521 513.465 313.521ZM541.422 357.125C541.391 357.159 541.357 357.192 541.32 357.225C540.676 357.797 540.037 358.404 539.393 359.015C538.93 359.455 538.464 359.896 537.992 360.33C540.856 360.954 543.824 360.636 546.734 360.325C546.927 360.304 547.119 360.284 547.311 360.263C545.222 359.448 543.249 358.416 541.422 357.125ZM422.556 351.512C423.035 351.331 423.52 351.099 424.01 350.839C423.793 350.656 423.576 350.472 423.359 350.289C421.883 349.04 420.408 347.793 418.883 346.61C418.765 348.623 420.581 350.031 422.057 351.176C422.124 351.228 422.19 351.28 422.256 351.331C422.353 351.394 422.453 351.454 422.556 351.512ZM457.999 331.23C455.213 327.459 452.349 323.582 447.334 323.483C447.418 323.527 447.501 323.571 447.584 323.617C447.645 323.651 447.706 323.686 447.767 323.722C445.116 322.81 442.412 323.178 439.722 323.543C438.089 323.765 436.461 323.987 434.854 323.921C430.101 323.535 425.772 321.88 421.445 320.225C417.822 318.84 414.202 317.455 410.335 316.817C409.872 318.058 409.418 319.307 408.964 320.557C406.933 326.145 404.893 331.758 401.917 336.905C411.565 335.371 419.988 342.319 426.987 348.092C427.271 348.326 427.553 348.558 427.832 348.788C427.919 348.75 428.006 348.713 428.094 348.677C428.832 349.507 429.813 350.005 430.773 350.492C430.932 350.573 431.09 350.653 431.246 350.734C431.257 351.295 431.83 351.486 432.37 351.666C432.615 351.748 432.853 351.827 433.029 351.937C432.99 352.001 432.954 352.067 432.913 352.13C434.792 352.658 436.563 352.027 438.407 351.369C438.506 351.334 438.605 351.298 438.704 351.263C441.622 350.146 444.596 349.139 447.57 348.13C452.139 346.582 456.709 345.033 461.076 343.09C462.56 341.894 461.949 340.343 461.367 338.866C460.848 337.551 460.353 336.295 461.382 335.401C460.182 334.185 459.096 332.716 457.999 331.23ZM401.201 337.964C400.011 339.559 398.472 340.784 396.236 340.882C395.682 340.907 395.13 340.867 394.584 340.786C394.471 343.143 394.321 345.509 394.172 347.879C393.555 357.667 392.932 367.536 394.797 377.19C402.176 378.794 409.658 379.958 417.198 380.494C417.508 371.603 417.131 362.699 416.444 353.833C414.273 351.224 412.72 346.871 416.618 344.935C412.012 341.589 406.665 339.506 401.201 337.964ZM384.492 360.977C384.209 366.476 383.925 371.979 384.197 377.485C384.145 378.33 384.29 379.355 384.442 380.425C384.805 382.985 385.204 385.8 383.019 386.996C382.667 388.839 377.509 389.299 374.316 389.583C373.495 389.656 372.804 389.718 372.358 389.789C380.353 390.487 388.054 392.645 395.751 394.802C399.208 395.771 402.664 396.74 406.146 397.576C402.231 393.83 398.472 388.789 399.373 383.138C391.062 382.017 389.057 381.12 389.062 372.43C388.537 361.758 389.005 350.476 393.184 340.502C391.203 339.934 389.325 339.421 387.31 338.876C385.101 343.518 384.951 348.7 384.804 353.765C384.779 354.595 384.755 355.422 384.722 356.243C384.654 357.82 384.573 359.398 384.492 360.977ZM558.109 423.68C554.483 403.056 556.586 392.773 568.642 375.587C567.832 371.399 567.024 367.213 566.223 363.022C563.324 363.275 560.299 362.897 557.33 362.527C556.014 362.363 554.709 362.2 553.431 362.094C551.925 362.205 550.394 362.406 548.854 362.608C544.428 363.19 539.928 363.782 535.715 362.258C530.709 367.116 501.826 358.373 494.602 356.101C492.719 355.477 490.822 354.883 488.924 354.289C480.92 351.785 472.902 349.276 465.939 344.455C464.562 343.569 465.849 341.388 467.233 342.279C470.309 344.259 473.532 346.012 476.881 347.493C489.922 352.331 503.546 355.162 517.156 357.99C520.387 358.662 523.617 359.333 526.839 360.031C527.563 360.09 528.33 360.3 529.105 360.511C530.839 360.985 532.611 361.469 534.028 360.305C535.274 359.238 536.494 358.142 537.715 357.047C538.273 356.546 538.831 356.045 539.39 355.547C527.212 342.368 511.227 334.146 492.988 332.969C495.759 337.65 490.283 338.578 486.699 338.604C483.406 338.969 480.119 339.377 476.833 339.786C473.074 340.253 469.315 340.719 465.547 341.122C465.925 345.287 461.773 347.247 458.33 348.271C452.626 350.381 446.922 352.49 441.215 354.599C437.439 356.273 432.999 357.391 429.312 354.899C428.956 355.083 428.596 355.279 428.23 355.478C425.948 356.718 423.479 358.06 420.876 357.241C421.518 365.726 421.514 374.235 421.376 382.737C421.363 383.861 420.401 384.862 419.235 384.842C412.983 384.733 406.73 384.27 400.55 383.319C402.247 386.879 405.192 389.536 408.084 392.145C408.955 392.931 409.822 393.713 410.648 394.514C411.171 395.049 411.769 395.547 412.371 396.049C413.721 397.175 415.092 398.317 415.677 399.93C438.908 405.784 462.077 414.014 482.03 427.296C491.067 433.445 487.826 443.772 484.032 452.002C480.165 461.715 476.202 471.388 472.146 481.027C494.353 467.958 517.048 455.698 539.736 443.442C547.615 439.186 555.494 434.93 563.351 430.641C560.078 430.008 558.532 426.634 558.109 423.68ZM463.115 502.639C463.194 502.597 463.273 502.555 463.352 502.512C463.299 502.527 463.246 502.542 463.192 502.556C463.079 502.587 462.966 502.618 462.855 502.651C462.831 502.707 462.807 502.763 462.782 502.819C462.892 502.758 463.003 502.698 463.115 502.639ZM572.684 440.408C572.515 439.438 572.346 438.467 572.151 437.498C571.721 435.405 571.325 433.078 571.95 430.973C569.775 430.491 567.623 430.218 565.408 430.749C551.534 440.353 536.648 448.428 521.784 456.492C516.632 459.287 511.483 462.08 506.379 464.935C504.172 466.167 501.962 467.396 499.752 468.624C490.123 473.977 480.493 479.331 471.058 485.008C468.907 487.83 467.544 491.376 466.182 494.918C465.281 497.263 464.38 499.607 463.252 501.74C463.577 501.61 463.903 501.481 464.23 501.352C471.632 498.421 479.106 495.46 485.881 491.286C486.638 491.13 488.532 489.969 490.574 488.717C493.693 486.805 497.157 484.682 497.436 485.609C515.315 476.805 532.914 467.478 550.36 457.876C553.999 455.88 557.629 453.869 561.248 451.837C562.187 451.432 563.568 450.565 565.095 449.607C568.244 447.63 572.012 445.264 573.789 445.769C573.309 443.996 572.997 442.203 572.684 440.408ZM432.753 635.166L432.96 635.141C432.913 635.112 432.865 635.083 432.818 635.055C432.575 635.114 432.334 635.178 432.094 635.246C432.314 635.219 432.534 635.192 432.753 635.166ZM431.761 631.536C431.807 631.35 431.889 631.173 432.01 631.012C467.721 587.672 509.456 549.55 551.053 511.553C562.203 501.368 573.344 491.191 584.357 480.926C583.766 479.135 583.169 477.345 582.572 475.556C579.569 466.555 576.565 457.551 574.428 448.31C544.086 467.056 511.612 482.803 479.089 497.662C488.532 506.18 484.04 519.606 478.256 528.885C472.889 538.498 467.464 548.079 462.038 557.66C459.41 562.301 456.781 566.942 454.16 571.587C447.561 582.529 441.657 593.827 435.752 605.127C433.29 609.84 430.827 614.553 428.314 619.241C428.014 619.691 427.715 620.204 427.404 620.738C426.079 623.009 424.532 625.661 421.789 625.483C423.976 627.307 426.521 627.599 429.276 627.039C430.369 626.914 430.573 628.673 429.533 628.9C428.999 629.017 428.466 629.123 427.932 629.225L429.171 629.973C430.034 630.494 430.898 631.015 431.761 631.536ZM575.137 408.983C574.788 407.189 574.438 405.395 574.09 403.602C573.601 401.093 573.113 398.584 572.624 396.075C571.467 390.137 570.31 384.2 569.16 378.261C568.612 379.377 568.05 380.49 567.487 381.603C563.932 388.634 560.366 395.686 560.45 403.763C560.291 409.315 561.001 414.882 561.789 420.369C561.833 420.676 561.871 421.013 561.91 421.367C562.094 423.004 562.318 424.999 563.402 426.115C564.422 426.847 565.668 426.62 566.941 426.387C567.965 426.2 569.008 426.009 569.965 426.314C570.243 426.361 570.542 426.451 570.849 426.543C571.608 426.771 572.418 427.015 573.092 426.669C574.826 425.376 575.459 423.288 576.079 421.24C576.357 420.323 576.632 419.413 577.003 418.587C576.385 415.386 575.761 412.184 575.137 408.983ZM578.982 426.606C578.9 426.483 578.823 426.358 578.752 426.23C578.69 426.358 578.626 426.484 578.56 426.609C578.512 426.699 578.464 426.788 578.415 426.876C578.601 426.778 578.79 426.688 578.982 426.606ZM590.127 432.153C590.112 432.065 590.098 431.976 590.084 431.887C590.001 431.844 589.924 431.798 589.852 431.747C589.923 431.924 589.993 432.1 590.063 432.277L590.215 432.658C590.184 432.491 590.154 432.322 590.127 432.153ZM671.816 441.712C648.125 446.075 622.983 441.195 600.225 434.3C597.387 433.363 594.571 432.34 591.813 431.187C594.965 443.405 598.713 455.474 602.462 467.546C605.411 477.04 608.36 486.535 611.02 496.107C612.499 496.772 612.742 499.003 611.696 500.117C614.933 500.943 616.74 504.087 618.429 507.024C618.968 507.96 619.494 508.876 620.051 509.689C641.471 490.514 662.074 469.091 671.816 441.712ZM678.433 328.032C678.745 327.106 677.26 326.709 676.948 327.63C670.121 350.061 664.335 372.876 659.314 395.761C658.359 398.916 660.899 398.748 660.677 397.149C665.434 373.886 671.744 350.835 678.433 328.032ZM53.4602 515.606C54.0193 516.176 54.7041 516.609 55.548 516.821C55.8711 516.904 56.1994 516.957 56.5328 516.987C55.7844 516.766 55.0688 516.198 54.6092 515.475C54.2373 515.583 53.8449 515.626 53.4602 515.606ZM49.6079 501.198C49.6412 500.694 49.6874 500.19 49.7438 499.688C49.7677 499.479 49.789 499.255 49.8112 499.021C49.9125 497.953 50.032 496.694 50.5056 495.802C49.9028 496.034 49.3027 496.274 48.6999 496.521C49.0667 498.065 49.3488 499.63 49.6079 501.198Z" fill="black"/>
<path fill-rule="evenodd" clip-rule="evenodd" d="M413.624 81.8101C397.132 68.4247 370.703 64.0785 353.048 77.5828C339.331 90.2563 333.654 126.27 336.082 144.367C336.757 155.975 345.637 169.131 358.674 165.46C360.887 165.242 363.037 164.395 365.271 164.217C367.943 163.91 370.636 163.905 373.303 164.281C379.114 165.102 384.266 168.183 389.907 169.624C400.373 172.296 412.051 170.499 421.061 164.478C450.833 144.932 437.347 100.728 413.624 81.8101V81.8101Z" fill="white"/>
<path fill-rule="evenodd" clip-rule="evenodd" d="M390.79 138.34C395.089 137.819 399.256 139.133 403.458 139.796C405.677 140.145 407.898 140.406 410.143 140.503C410.595 140.523 411.047 140.535 411.499 140.544C411.541 140.147 411.763 139.782 412.246 139.563C413.235 139.116 414.026 138.914 415.112 138.957C416.106 138.996 417.103 139.098 418.082 139.277C419.859 139.602 421.644 140.341 422.944 141.623C425.952 144.591 425.494 149.359 423.17 152.592C418.367 159.272 409.602 159.582 402.095 159.494L401.402 159.485C394.566 159.388 384.787 160.406 381.681 152.64C380.539 149.784 380.698 146.474 382.096 143.735C383.764 140.468 387.274 138.766 390.79 138.34ZM412.142 149.463L412.081 149.465C408.929 149.586 405.778 149.672 402.625 149.727C402.719 150.536 402.816 151.345 402.926 152.152C403.012 152.787 403.105 153.421 403.201 154.054C403.242 154.323 403.392 154.739 403.349 155.005L403.334 155.11V155.11C403.496 155.183 403.643 155.301 403.752 155.471C403.79 155.531 403.818 155.59 403.845 155.65C406.293 155.669 408.928 155.621 411.424 155.177L411.429 155.123V155.123C411.474 154.805 411.606 154.59 411.783 154.443C411.958 153.428 411.942 152.346 412.01 151.339C412.052 150.713 412.098 150.088 412.142 149.463ZM400.217 149.77C397.945 149.809 395.673 149.839 393.402 149.811L392.371 149.795V149.795C392.588 150.961 392.825 152.124 393.022 153.298C393.228 154.522 392.149 155.3 391.215 155.268C391.32 155.285 391.425 155.303 391.53 155.318C394.446 155.73 397.475 155.62 400.435 155.617C400.276 154.689 400.34 153.642 400.317 152.867L400.312 152.747C400.267 151.754 400.235 150.762 400.217 149.77ZM384.787 149.556C384.866 150.163 385.019 150.756 385.249 151.309C386.218 153.644 388.441 154.733 390.793 155.192C390.385 155.051 390.061 154.713 389.979 154.134C389.776 152.694 389.702 151.231 389.697 149.768C388.058 149.753 386.407 149.718 384.787 149.556ZM420.69 149.058C419.523 149.333 418.167 149.207 417.022 149.258C415.95 149.307 414.876 149.35 413.804 149.393C413.854 150.124 413.903 150.855 413.957 151.586C414.026 152.531 414.033 153.529 414.214 154.47C416.373 153.734 418.307 152.554 419.758 150.667C420.12 150.197 420.444 149.645 420.69 149.058ZM390.297 142.171C388.355 142.63 386.516 143.601 385.528 145.376C384.941 146.429 384.683 147.678 384.733 148.908C386.375 148.717 388.045 148.645 389.707 148.585C389.713 148.286 389.72 147.987 389.729 147.689L389.754 146.926C389.8 145.469 389.822 143.64 390.297 142.171ZM400.353 142.349L399.497 142.253C397.122 141.982 394.748 141.699 392.372 141.861C392.029 141.885 391.679 141.922 391.33 141.974C391.75 143.487 391.714 145.264 391.89 146.761C391.957 147.34 392.043 147.915 392.138 148.487L392.55 148.468V148.468C395.099 148.33 397.65 148.245 400.201 148.144C400.201 147.665 400.204 147.187 400.212 146.708L400.221 146.229C400.25 145.007 400.171 143.629 400.353 142.349ZM412.281 142.155C409.793 142.555 407.222 142.641 404.778 142.644C403.802 142.645 402.826 142.585 401.851 142.499C401.915 143.017 401.948 143.542 401.996 144.053C402.092 145.086 402.202 146.118 402.321 147.148L402.428 148.05V148.05C405.564 147.908 408.699 147.755 411.834 147.596L412.276 147.572V147.572L412.4 145.839C412.484 144.683 412.577 143.528 412.708 142.378L412.61 142.342V142.342C412.495 142.295 412.385 142.229 412.281 142.155ZM413.362 142.585C413.499 144.219 413.574 145.859 413.675 147.496L415.742 147.386C416.086 147.367 416.431 147.348 416.775 147.328C418.114 147.251 419.835 146.846 421.159 147.224C421.26 146.022 420.916 144.851 419.83 144.044C417.923 142.626 415.495 143.131 413.362 142.585ZM406.301 127.978C409.378 126.218 417.099 124.42 417.588 129.95C417.813 132.494 415.919 134.603 413.706 135.544L413.623 135.579C411.548 136.43 407.87 137.392 406.074 135.545C404.58 134.008 406.562 131.251 408.419 132.511C409.374 133.158 411.383 132.681 412.448 132.373L412.514 132.354C413.663 132.016 415.196 130.937 414.72 129.524C414.3 128.274 412.51 128.046 411.39 128.005C409.717 127.945 408.089 128.333 406.432 128.459C406.169 128.479 406.088 128.1 406.301 127.978ZM419.048 119.086C423.225 118.89 425.823 123.444 424.863 127.175C424.697 127.819 423.975 128.451 423.279 128.379L423.104 128.363C423.015 128.354 422.925 128.343 422.843 128.32C422.182 128.137 421.589 127.451 421.638 126.739L421.65 126.532C421.748 124.769 421.557 122.738 419.459 122.311C417.68 121.949 416.686 123.659 416.665 125.233C416.661 125.513 416.347 125.708 416.099 125.558C414.813 124.776 414.591 123.221 415.082 121.883C415.704 120.186 417.263 119.169 419.048 119.086ZM388.054 120.062C391.093 119.05 394.372 120.667 395.844 123.351C396.36 123.5 396.876 123.897 396.804 124.506C396.701 125.381 396.545 125.933 395.937 126.597C394.986 127.635 393.205 127.104 392.81 125.826L392.794 125.768C392.345 124.116 390.523 123.026 388.864 123.604C386.926 124.28 386.982 126.324 385.622 127.515C385.462 127.655 385.271 127.677 385.079 127.585C383.635 126.888 383.895 124.791 384.409 123.59C385.085 122.015 386.397 120.614 388.054 120.062ZM383.914 110.846C386.377 108.336 392.8 105.908 394.485 110.542C394.805 111.425 394.122 112.615 393.202 112.798C391.695 113.097 390.358 112.444 388.861 112.561C387.649 112.657 386.385 113.061 385.416 113.811C382.732 115.887 382.142 119.399 380.272 122.042C380.181 122.17 380.004 122.116 379.987 121.964C379.562 118.117 381.217 113.594 383.914 110.846ZM416.035 108.375C417.67 107.799 419.521 107.848 421.164 108.359C422.819 108.875 424.338 109.853 425.508 111.132C426.04 111.712 426.531 112.353 426.925 113.035C427.135 113.396 427.355 114.142 427.593 114.587C428.88 115.329 429.431 117.021 428.278 118.224L428.226 118.277L428.072 118.43C427.452 119.042 426.518 119.307 425.672 119.063C423.779 118.516 423.549 117.027 422.894 115.447C422.461 114.404 421.72 113.48 420.821 112.802C418.696 111.199 415.212 110.689 412.654 111.444C412.518 111.484 412.358 111.311 412.455 111.185C412.94 110.558 413.219 110.044 413.868 109.538C414.527 109.025 415.246 108.654 416.035 108.375Z" fill="black"/>
<path fill-rule="evenodd" clip-rule="evenodd" d="M451.222 105.959C449.577 101.397 447.839 96.8696 446.011 92.3774C444.23 88.0054 442.622 83.5389 440.411 79.3741C427.206 54.4994 403.194 54.4994 390.781 57.7496C384.344 54.9801 372.288 55.7613 365.585 58.2604C354.734 62.3061 341.507 78.221 336.984 85.3714C326.999 101.159 320.768 122.172 327.401 140.415C328.267 142.799 329.373 145.007 330.618 147.136C329.834 148.197 328.931 149.202 327.931 150.189C324.96 153.125 321.989 155.963 319.423 159.274C316.873 162.564 314.758 166.062 313.184 169.92C310.216 177.194 310.073 185.432 313.997 192.373C317.411 198.413 323.458 202.91 330.272 203.339C330.622 203.387 330.972 203.432 331.324 203.467C332.226 204.952 333.327 206.319 334.584 207.511C338.433 211.167 347.608 213.043 352.841 213.163C353.11 213.378 353.381 213.594 353.651 213.806C356.854 216.323 360.214 218.862 363.89 220.652C366.38 221.867 369.645 222.881 372.243 222.004C373.421 222.791 375.355 222.625 376.523 221.982C378.444 220.925 380.006 219.022 380.956 217.074C383.261 212.344 382.707 207.168 382.115 202.115C381.463 196.534 380.836 190.95 380.199 185.368C379.7 181.004 379.179 176.567 377.85 172.363C377.162 170.184 376.262 168.091 375.099 166.123C375.129 165.957 375.124 165.792 375.076 165.637C374.695 164.4 373.908 163.751 372.975 162.91C372.854 162.802 372.734 162.692 372.616 162.58C372.15 162.049 371.651 161.555 371.117 161.137C370.911 160.929 370.708 160.719 370.505 160.509C368.817 158.743 367.222 156.888 365.806 154.9C364.431 152.972 363.19 150.958 362.009 148.908C360.808 146.822 360.013 144.521 358.814 142.45C358.712 142.272 358.451 142.237 358.305 142.385C357.934 142.768 357.696 143.194 357.741 143.642L357.556 143.669C357.485 142.993 356.861 142.442 356.013 142.59C354.745 142.81 353.701 142.893 352.603 142.472C352.796 141.193 352.974 139.911 353.15 138.626C353.471 136.262 353.769 133.891 354.025 131.52C354.644 131.668 355.259 131.88 355.861 132.151C356.718 132.534 357.528 133.05 358.22 133.683C358.902 134.309 359.374 135.153 360.206 135.589C361.164 136.087 362.32 135.263 362.039 134.182C361.47 131.996 358.248 130.744 356.254 130.331C355.57 130.188 354.87 130.128 354.17 130.143C354.328 128.62 354.469 127.098 354.584 125.573C354.639 124.852 354.689 124.131 354.737 123.407C356.287 122.939 357.947 122.798 359.559 123.019C360.091 123.442 360.622 123.86 361.136 124.283C362.769 125.631 364.394 126.985 365.999 128.365C366.144 128.488 366.287 128.61 366.433 128.735C367.385 129.554 368.574 128.743 368.413 127.584C367.105 118.083 372.932 110.526 379.755 104.672C387.308 98.1892 401.04 97.4343 410.022 86.205C414.159 87.0458 423.395 89.5429 427.206 95.6075C432.543 104.106 431.845 111.721 432.252 121.361C432.658 131.009 433.691 141.073 431.497 150.585C429.473 159.357 423.994 166.851 415.493 170.297C415.283 170.382 415.07 170.465 414.857 170.545C410.461 172.2 405.664 172.668 401.04 171.797C395.922 170.83 391.649 168.491 387.391 165.614C387.145 165.452 386.787 165.787 386.972 166.033C392.584 173.459 403.608 175.941 412.351 173.98C412.76 173.888 413.166 173.787 413.57 173.677C411.614 179.294 412.008 185.459 414.556 190.927C416.088 194.218 418.425 197.065 421.271 199.311C424.408 201.785 428.3 203.783 430.476 207.256C432.47 210.438 431.878 214.014 428.465 215.852C427.605 216.318 427.274 217.823 428.127 218.484C428.453 218.734 428.779 218.99 429.112 219.24C431.023 220.68 436.271 223.384 437.121 223.484C444.669 224.378 449.745 218.844 452.997 212.316C456.816 204.654 455.823 195.317 451.615 188.02C448.24 182.166 441.592 176.397 444.235 168.987C445.178 166.341 447.107 164.084 448.98 162.046C451.116 159.725 453.413 157.551 455.462 155.148C457.498 152.761 459.304 150.165 460.312 147.17C461.784 142.793 461.051 138.06 459.946 133.691C457.576 124.311 454.499 115.056 451.222 105.959Z" fill="black"/>
</svg>
